<svg width="52" height="51" viewBox="0 0 52 51" fill="none" xmlns="http://www.w3.org/2000/svg">
<path d="M44.0928 5.50659H7.90645C7.03621 5.50659 6.33313 6.20967 6.33313 7.07991V43.2663C6.33313 44.1365 7.03621 44.8396 7.90645 44.8396H44.0928C44.9631 44.8396 45.6661 44.1365 45.6661 43.2663V7.07991C45.6661 6.20967 44.9631 5.50659 44.0928 5.50659ZM39.5499 16.9869H36.4081C33.9449 16.9869 33.468 18.1571 33.468 19.8779V23.6686H39.3483L38.5813 29.603H33.468V44.8396H27.337V29.6079H22.2089V23.6686H27.337V19.2928C27.337 14.2139 30.4394 11.4459 34.9725 11.4459C37.1456 11.4459 39.009 11.6081 39.5548 11.6819V16.9869H39.5499Z" fill="#112D57"/>
</svg>
