<svg width="51" height="51" viewBox="0 0 51 51" fill="none" xmlns="http://www.w3.org/2000/svg">
<path d="M43.9212 5.50659H7.73482C6.86458 5.50659 6.1615 6.20967 6.1615 7.07991V43.2663C6.1615 44.1365 6.86458 44.8396 7.73482 44.8396H43.9212C44.7914 44.8396 45.4945 44.1365 45.4945 43.2663V7.07991C45.4945 6.20967 44.7914 5.50659 43.9212 5.50659ZM17.8287 39.0232H11.9926V20.2516H17.8287V39.0232ZM14.9131 17.6851C14.2441 17.6851 13.5901 17.4867 13.0338 17.115C12.4775 16.7433 12.044 16.215 11.7879 15.5969C11.5319 14.9788 11.4649 14.2987 11.5955 13.6425C11.726 12.9863 12.0481 12.3836 12.5212 11.9106C12.9943 11.4375 13.597 11.1153 14.2532 10.9848C14.9093 10.8543 15.5895 10.9213 16.2076 11.1773C16.8257 11.4333 17.354 11.8669 17.7257 12.4231C18.0973 12.9794 18.2957 13.6334 18.2957 14.3024C18.2908 16.1708 16.7765 17.6851 14.9131 17.6851ZM39.6781 39.0232H33.847V29.8931C33.847 27.715 33.8077 24.9174 30.8135 24.9174C27.7799 24.9174 27.3128 27.2872 27.3128 29.7357V39.0232H21.4866V20.2516H27.0817V22.818H27.1604C27.9372 21.343 29.84 19.7845 32.6818 19.7845C38.5916 19.7845 39.6781 23.6735 39.6781 28.7278V39.0232Z" fill="#112D57"/>
</svg>
