<svg width="41" height="34" viewBox="0 0 41 34" fill="none" xmlns="http://www.w3.org/2000/svg">
<path d="M40.9112 3.94807C39.4068 4.59707 37.7695 5.06415 36.0831 5.24606C37.834 4.20588 39.1451 2.56256 39.7706 0.624432C38.1276 1.6018 36.3277 2.28715 34.4508 2.65008C33.6663 1.81144 32.7175 1.14333 31.6636 0.687401C30.6096 0.231471 29.473 -0.00251625 28.3247 2.0406e-05C23.6785 2.0406e-05 19.9418 3.76616 19.9418 8.38779C19.9418 9.03678 20.0205 9.68578 20.1483 10.3102C13.1913 9.94636 6.98653 6.62272 2.86148 1.53401C2.10985 2.81782 1.71597 4.27958 1.72082 5.76722C1.72082 8.67787 3.20072 11.2443 5.45746 12.7538C4.12753 12.7014 2.82874 12.3358 1.66674 11.6868V11.7901C1.66674 15.866 4.54788 19.2437 8.38776 20.0205C7.66678 20.2078 6.9251 20.3036 6.1802 20.3057C5.63445 20.3057 5.11821 20.2516 4.59705 20.1779C5.65904 23.5015 8.75159 25.9156 12.4341 25.9942C9.55301 28.251 5.9442 29.5784 2.02565 29.5784C1.32257 29.5784 0.673578 29.5539 0 29.4752C3.71697 31.8598 8.12718 33.2364 12.8766 33.2364C28.2952 33.2364 36.7321 20.463 36.7321 9.37603C36.7321 9.0122 36.7321 8.64837 36.7075 8.28454C38.3399 7.0898 39.7706 5.60989 40.9112 3.94807Z" fill="#112D57"/>
</svg>
